<?xml version="1.0" encoding="UTF-8" standalone="no"?>
<!DOCTYPE svg PUBLIC "-//W3C//DTD SVG 1.1//EN" "http://www.w3.org/Graphics/SVG/1.1/DTD/svg11.dtd">
<svg width="100%" height="100%" viewBox="0 0 2000 2000" version="1.1" xmlns="http://www.w3.org/2000/svg" xmlns:xlink="http://www.w3.org/1999/xlink" xml:space="preserve" xmlns:serif="http://www.serif.com/" style="fill-rule:evenodd;clip-rule:evenodd;stroke-linejoin:round;stroke-miterlimit:2;">
    <g transform="matrix(23.2622,0,0,23.2622,-181.281,1876.24)">
        <path d="M24.268,2.295C25.179,2.979 26.188,3.215 27.295,3.003C28.402,2.791 29.606,2.197 30.908,1.221L50.781,-13.379L70.703,1.221C72.005,2.197 73.21,2.791 74.316,3.003C75.423,3.215 76.416,2.979 77.295,2.295C78.174,1.611 78.695,0.724 78.857,-0.366C79.02,-1.457 78.841,-2.767 78.32,-4.297L70.459,-27.686L90.527,-42.09C91.829,-43.001 92.749,-43.953 93.286,-44.946C93.823,-45.939 93.913,-46.973 93.555,-48.047C93.197,-49.089 92.521,-49.854 91.528,-50.342C90.536,-50.83 89.225,-51.074 87.598,-51.074L62.988,-50.879L55.518,-74.414C55.029,-75.944 54.395,-77.108 53.613,-77.905C52.832,-78.703 51.888,-79.102 50.781,-79.102C49.674,-79.102 48.739,-78.703 47.974,-77.905C47.209,-77.108 46.566,-75.944 46.045,-74.414L38.574,-50.879L13.965,-51.074C12.37,-51.074 11.068,-50.83 10.059,-50.342C9.049,-49.854 8.366,-49.089 8.008,-48.047C7.65,-46.973 7.739,-45.939 8.276,-44.946C8.813,-43.953 9.733,-43.001 11.035,-42.09L31.104,-27.686L23.242,-4.297C22.721,-2.767 22.542,-1.457 22.705,-0.366C22.868,0.724 23.389,1.611 24.268,2.295Z" style="fill:white;fill-rule:nonzero;"/>
    </g>
</svg>
