<?xml version="1.0" encoding="UTF-8" standalone="no"?>
<!DOCTYPE svg PUBLIC "-//W3C//DTD SVG 1.1//EN" "http://www.w3.org/Graphics/SVG/1.1/DTD/svg11.dtd">
<svg width="100%" height="100%" viewBox="0 0 2000 2000" version="1.1" xmlns="http://www.w3.org/2000/svg" xmlns:xlink="http://www.w3.org/1999/xlink" xml:space="preserve" xmlns:serif="http://www.serif.com/" style="fill-rule:evenodd;clip-rule:evenodd;stroke-linejoin:round;stroke-miterlimit:2;">
    <path d="M829.189,1690.5L537.71,1904.63C507.421,1927.35 479.404,1941.17 453.657,1946.09C427.912,1951.01 404.438,1945.52 383.235,1929.62C362.79,1913.72 350.674,1893.09 346.888,1867.72C343.101,1842.35 347.266,1811.87 359.382,1776.28L542.253,1232.21L75.421,897.138C45.131,875.935 23.739,853.785 11.245,830.689C-1.249,807.595 -3.332,783.552 4.998,758.563C13.327,734.331 29.229,716.536 52.704,705.178C76.178,693.82 106.467,688.141 143.57,688.141L716.038,692.684L889.822,145.205C901.939,109.615 916.894,82.544 934.688,63.992C952.484,45.44 974.254,36.163 999.999,36.163C1025.75,36.163 1047.71,45.44 1065.88,63.992C1084.05,82.544 1098.82,109.615 1110.18,145.205L1283.96,692.684L1856.43,688.141C1894.29,688.141 1924.77,693.82 1947.86,705.178C1970.96,716.536 1986.67,734.331 1995,758.563C2003.33,783.552 2001.25,807.595 1988.75,830.689C1976.26,853.785 1954.87,875.935 1924.58,897.138L1768.08,1009.46C1661.49,898.326 1511.55,829.1 1345.56,829.1C1022.44,829.1 760.112,1091.43 760.112,1414.55C760.112,1514.3 785.111,1608.25 829.189,1690.5ZM1345.56,941.174C1606.83,941.174 1818.94,1153.29 1818.94,1414.55C1818.94,1675.81 1606.83,1887.93 1345.56,1887.93C1084.3,1887.93 872.186,1675.81 872.186,1414.55C872.186,1153.29 1084.3,941.174 1345.56,941.174ZM1124.19,1727.98C1154.58,1727.98 1171.52,1713.03 1183.47,1674.18L1230.3,1533.7L1476.38,1533.7L1523.2,1674.18C1534.66,1712.54 1552.59,1727.98 1582.98,1727.98C1615.36,1727.98 1636.78,1709.05 1636.78,1679.16C1636.78,1666.71 1633.79,1653.26 1628.31,1636.82L1441.51,1108.29C1424.57,1057.98 1400.16,1036.56 1354.83,1036.56C1309.5,1036.56 1285.09,1058.48 1267.66,1108.29L1080.86,1636.82C1074.38,1655.75 1071.39,1668.7 1071.39,1680.65C1071.39,1709.55 1092.81,1727.98 1124.19,1727.98ZM1257.2,1447.03L1350.85,1159.6L1356.33,1159.6L1449.48,1447.03L1257.2,1447.03Z" style="fill:white;fill-rule:nonzero;"/>
</svg>
